# MagicaVoxel @ Ephtracy

# group
o 

# material
mtllib CrossyRoadCar.vox.mtl
usemtl palette

# normals
vn 1 0 0
vn -1 0 0
vn 0 0 -1
vn 0 0 1
vn 0 -1 0
vn 0 1 0

# texcoords
vt 0.0917969 0.5
vt 0.115234 0.5
vt 0.306641 0.5
vt 0.876953 0.5
vt 0.955078 0.5
vt 0.958984 0.5
vt 0.962891 0.5
vt 0.978516 0.5

# verts
v 0.8 0 -0.4
v 0.8 0 0.4
v 0.8 0.1 -0.4
v 0.8 0.1 0.4
v 0.8 0.2 -0.4
v 0.8 0.2 0.4
v 0.8 0.3 -0.2
v 0.8 0.3 0.2
v 0.8 0.4 -0.4
v 0.8 0.4 -0.2
v 0.8 0.4 0.2
v 0.8 0.4 0.4
v 0.6 0.4 -0.3
v 0.6 0.4 -0.2
v 0.6 0.4 0.2
v 0.6 0.4 0.3
v 0.6 0.6 -0.2
v 0.6 0.6 0.2
v 0.6 0.7 -0.3
v 0.6 0.7 0.3
v 0 0.3 -0.5
v 0 0.3 -0.4
v 0 0.3 0.4
v 0 0.3 0.5
v 0 0.4 -0.5
v 0 0.4 -0.4
v 0 0.4 0.4
v 0 0.4 0.5
v 0.7 0 -0.3
v 0.7 0 0.3
v 0.7 0.1 -0.3
v 0.7 0.1 0.3
v -0.2 0.3 -0.5
v -0.2 0.3 -0.4
v -0.2 0.3 0.4
v -0.2 0.3 0.5
v -0.2 0.4 -0.5
v -0.2 0.4 -0.4
v -0.2 0.4 0.4
v -0.2 0.4 0.5
v -0.4 0.4 -0.3
v -0.4 0.4 -0.2
v -0.4 0.4 0.2
v -0.4 0.4 0.3
v -0.4 0.6 -0.2
v -0.4 0.6 0.2
v -0.4 0.6 0.3
v -0.4 0.7 -0.3
v -0.4 0.7 0.3
v -0.9 0 -0.4
v -0.9 0 -0.3
v -0.9 0 0.3
v -0.9 0 0.4
v -0.9 0.1 -0.4
v -0.9 0.1 -0.3
v -0.9 0.1 0.3
v -0.9 0.1 0.4
v -0.9 0.2 -0.4
v -0.9 0.2 -0.3
v -0.9 0.2 -0.2
v -0.9 0.2 0.2
v -0.9 0.2 0.3
v -0.9 0.2 0.4
v -0.9 0.3 -0.3
v -0.9 0.3 -0.2
v -0.9 0.3 0.2
v -0.9 0.3 0.3
v -0.9 0.4 -0.4
v -0.9 0.4 -0.2
v -0.9 0.4 0.2
v -0.9 0.4 0.4
v 0 0.3 -0.5
v 0 0.4 -0.5
v -0.2 0.3 -0.5
v -0.2 0.4 -0.5
v 0.8 0 -0.4
v 0.8 0.1 -0.4
v 0.8 0.2 -0.4
v 0.8 0.4 -0.4
v 0.7 0 -0.4
v 0.7 0.1 -0.4
v 0.7 0.2 -0.4
v 0.7 0.3 -0.4
v 0.6 0.1 -0.4
v 0.6 0.2 -0.4
v 0.5 0.1 -0.4
v 0.5 0.2 -0.4
v 0.4 0 -0.4
v 0.4 0.1 -0.4
v 0.4 0.2 -0.4
v 0.4 0.3 -0.4
v 0 0.3 -0.4
v 0 0.4 -0.4
v -0.2 0.3 -0.4
v -0.2 0.4 -0.4
v -0.4 0 -0.4
v -0.4 0.1 -0.4
v -0.4 0.2 -0.4
v -0.4 0.3 -0.4
v -0.5 0.1 -0.4
v -0.5 0.2 -0.4
v -0.6 0.1 -0.4
v -0.6 0.2 -0.4
v -0.7 0 -0.4
v -0.7 0.1 -0.4
v -0.7 0.2 -0.4
v -0.7 0.3 -0.4
v -0.9 0 -0.4
v -0.9 0.1 -0.4
v -0.9 0.2 -0.4
v -0.9 0.4 -0.4
v 0.6 0.4 -0.3
v 0.6 0.7 -0.3
v 0.5 0.4 -0.3
v 0.5 0.6 -0.3
v 0.4 0.4 -0.3
v 0.4 0.6 -0.3
v 0.3 0.4 -0.3
v 0.3 0.6 -0.3
v -0.3 0.4 -0.3
v -0.3 0.6 -0.3
v -0.4 0.4 -0.3
v -0.4 0.7 -0.3
v 0.7 0 0.3
v 0.7 0.1 0.3
v 0.4 0 0.3
v 0.4 0.1 0.3
v -0.4 0 0.3
v -0.4 0.1 0.3
v -0.7 0 0.3
v -0.7 0.1 0.3
v -0.8 0.1 0.3
v -0.9 0 0.3
v -0.9 0.1 0.3
v 0.7 0 -0.3
v 0.7 0.1 -0.3
v 0.4 0 -0.3
v 0.4 0.1 -0.3
v -0.4 0 -0.3
v -0.4 0.1 -0.3
v -0.7 0 -0.3
v -0.7 0.1 -0.3
v -0.8 0.1 -0.3
v -0.9 0 -0.3
v -0.9 0.1 -0.3
v 0.6 0.4 0.3
v 0.6 0.7 0.3
v 0.5 0.4 0.3
v 0.5 0.6 0.3
v 0.4 0.4 0.3
v 0.4 0.6 0.3
v 0.3 0.4 0.3
v 0.3 0.6 0.3
v -0.3 0.4 0.3
v -0.3 0.6 0.3
v -0.4 0.4 0.3
v -0.4 0.6 0.3
v -0.4 0.7 0.3
v 0.8 0 0.4
v 0.8 0.1 0.4
v 0.8 0.2 0.4
v 0.8 0.4 0.4
v 0.7 0 0.4
v 0.7 0.1 0.4
v 0.7 0.2 0.4
v 0.7 0.3 0.4
v 0.6 0.1 0.4
v 0.6 0.2 0.4
v 0.5 0.1 0.4
v 0.5 0.2 0.4
v 0.4 0 0.4
v 0.4 0.1 0.4
v 0.4 0.2 0.4
v 0.4 0.3 0.4
v 0 0.3 0.4
v 0 0.4 0.4
v -0.2 0.3 0.4
v -0.2 0.4 0.4
v -0.4 0 0.4
v -0.4 0.1 0.4
v -0.4 0.2 0.4
v -0.4 0.3 0.4
v -0.5 0.1 0.4
v -0.5 0.2 0.4
v -0.6 0.1 0.4
v -0.6 0.2 0.4
v -0.7 0 0.4
v -0.7 0.1 0.4
v -0.7 0.2 0.4
v -0.7 0.3 0.4
v -0.9 0 0.4
v -0.9 0.1 0.4
v -0.9 0.2 0.4
v -0.9 0.4 0.4
v 0 0.3 0.5
v 0 0.4 0.5
v -0.2 0.3 0.5
v -0.2 0.4 0.5
v 0.8 0 -0.4
v 0.7 0 -0.4
v 0.4 0 -0.4
v -0.4 0 -0.4
v -0.7 0 -0.4
v -0.9 0 -0.4
v 0.7 0 -0.3
v 0.4 0 -0.3
v -0.4 0 -0.3
v -0.7 0 -0.3
v -0.9 0 -0.3
v 0.7 0 0.3
v 0.4 0 0.3
v -0.4 0 0.3
v -0.7 0 0.3
v -0.9 0 0.3
v 0.8 0 0.4
v 0.7 0 0.4
v 0.4 0 0.4
v -0.4 0 0.4
v -0.7 0 0.4
v -0.9 0 0.4
v 0.7 0.1 -0.3
v 0.4 0.1 -0.3
v -0.4 0.1 -0.3
v -0.7 0.1 -0.3
v -0.8 0.1 -0.3
v -0.9 0.1 -0.3
v 0.7 0.1 0.3
v 0.4 0.1 0.3
v -0.4 0.1 0.3
v -0.7 0.1 0.3
v -0.8 0.1 0.3
v -0.9 0.1 0.3
v 0 0.3 -0.5
v -0.2 0.3 -0.5
v 0 0.3 -0.4
v -0.2 0.3 -0.4
v 0 0.3 0.4
v -0.2 0.3 0.4
v 0 0.3 0.5
v -0.2 0.3 0.5
v 0 0.4 -0.5
v -0.2 0.4 -0.5
v 0.8 0.4 -0.4
v 0 0.4 -0.4
v -0.2 0.4 -0.4
v -0.9 0.4 -0.4
v 0.6 0.4 -0.3
v 0.5 0.4 -0.3
v 0.4 0.4 -0.3
v 0.3 0.4 -0.3
v -0.3 0.4 -0.3
v -0.4 0.4 -0.3
v 0.8 0.4 -0.2
v 0.6 0.4 -0.2
v -0.4 0.4 -0.2
v -0.9 0.4 -0.2
v 0.8 0.4 0.2
v 0.6 0.4 0.2
v -0.4 0.4 0.2
v -0.9 0.4 0.2
v 0.6 0.4 0.3
v 0.5 0.4 0.3
v 0.4 0.4 0.3
v 0.3 0.4 0.3
v -0.3 0.4 0.3
v -0.4 0.4 0.3
v 0.8 0.4 0.4
v 0 0.4 0.4
v -0.2 0.4 0.4
v -0.9 0.4 0.4
v 0 0.4 0.5
v -0.2 0.4 0.5
v 0.6 0.7 -0.3
v -0.4 0.7 -0.3
v 0.6 0.7 0.3
v -0.4 0.7 0.3

# faces
f 3/8/1 2/8/1 1/8/1
f 4/8/1 2/8/1 3/8/1
f 5/2/1 4/2/1 3/2/1
f 6/2/1 4/2/1 5/2/1
f 7/1/1 6/1/1 5/1/1
f 8/1/1 6/1/1 7/1/1
f 9/1/1 7/1/1 5/1/1
f 10/2/1 8/2/1 7/2/1
f 10/1/1 7/1/1 9/1/1
f 11/1/1 6/1/1 8/1/1
f 11/2/1 8/2/1 10/2/1
f 12/1/1 6/1/1 11/1/1
f 17/6/1 14/6/1 13/6/1
f 17/5/1 15/5/1 14/5/1
f 18/6/1 16/6/1 15/6/1
f 18/5/1 15/5/1 17/5/1
f 19/6/1 17/6/1 13/6/1
f 19/6/1 18/6/1 17/6/1
f 20/6/1 16/6/1 18/6/1
f 20/6/1 18/6/1 19/6/1
f 25/2/1 22/2/1 21/2/1
f 26/2/1 22/2/1 25/2/1
f 27/2/1 24/2/1 23/2/1
f 28/2/1 24/2/1 27/2/1
f 29/8/2 30/8/2 31/8/2
f 31/8/2 30/8/2 32/8/2
f 33/2/2 34/2/2 37/2/2
f 37/2/2 34/2/2 38/2/2
f 35/2/2 36/2/2 39/2/2
f 39/2/2 36/2/2 40/2/2
f 41/6/2 42/6/2 45/6/2
f 42/5/2 43/5/2 45/5/2
f 43/7/2 44/7/2 46/7/2
f 45/5/2 43/5/2 46/5/2
f 46/7/2 44/7/2 47/7/2
f 41/6/2 45/6/2 48/6/2
f 45/6/2 46/6/2 48/6/2
f 46/6/2 47/6/2 48/6/2
f 48/6/2 47/6/2 49/6/2
f 50/8/2 51/8/2 54/8/2
f 54/8/2 51/8/2 55/8/2
f 52/8/2 53/8/2 56/8/2
f 56/8/2 53/8/2 57/8/2
f 54/2/2 55/2/2 58/2/2
f 55/1/2 56/1/2 59/1/2
f 58/2/2 55/2/2 59/2/2
f 59/1/2 56/1/2 60/1/2
f 60/1/2 56/1/2 61/1/2
f 56/2/2 57/2/2 62/2/2
f 61/1/2 56/1/2 62/1/2
f 62/2/2 57/2/2 63/2/2
f 58/1/2 59/1/2 64/1/2
f 59/6/2 60/6/2 64/6/2
f 60/2/2 61/2/2 65/2/2
f 64/6/2 60/6/2 65/6/2
f 61/6/2 62/6/2 66/6/2
f 65/2/2 61/2/2 66/2/2
f 62/1/2 63/1/2 67/1/2
f 66/6/2 62/6/2 67/6/2
f 58/1/2 64/1/2 68/1/2
f 64/1/2 65/1/2 68/1/2
f 65/2/2 66/2/2 69/2/2
f 68/1/2 65/1/2 69/1/2
f 66/1/2 67/1/2 70/1/2
f 69/2/2 66/2/2 70/2/2
f 67/1/2 63/1/2 71/1/2
f 70/1/2 67/1/2 71/1/2
f 74/2/3 73/2/3 72/2/3
f 75/2/3 73/2/3 74/2/3
f 80/8/3 77/8/3 76/8/3
f 81/2/3 78/2/3 77/2/3
f 81/8/3 77/8/3 80/8/3
f 82/1/3 79/1/3 78/1/3
f 82/2/3 78/2/3 81/2/3
f 83/1/3 79/1/3 82/1/3
f 84/4/3 81/4/3 80/4/3
f 84/4/3 82/4/3 81/4/3
f 84/4/3 83/4/3 82/4/3
f 85/4/3 83/4/3 84/4/3
f 86/4/3 84/4/3 80/4/3
f 86/3/3 85/3/3 84/3/3
f 87/4/3 83/4/3 85/4/3
f 87/3/3 85/3/3 86/3/3
f 88/4/3 86/4/3 80/4/3
f 88/4/3 87/4/3 86/4/3
f 89/4/3 87/4/3 88/4/3
f 90/4/3 83/4/3 87/4/3
f 90/4/3 87/4/3 89/4/3
f 91/1/3 79/1/3 83/1/3
f 91/4/3 83/4/3 90/4/3
f 92/1/3 91/1/3 90/1/3
f 92/1/3 79/1/3 91/1/3
f 93/1/3 79/1/3 92/1/3
f 94/1/3 92/1/3 90/1/3
f 96/8/3 89/8/3 88/8/3
f 97/2/3 90/2/3 89/2/3
f 97/8/3 89/8/3 96/8/3
f 98/1/3 95/1/3 94/1/3
f 98/2/3 90/2/3 97/2/3
f 98/1/3 94/1/3 90/1/3
f 99/1/3 95/1/3 98/1/3
f 100/4/3 97/4/3 96/4/3
f 100/4/3 98/4/3 97/4/3
f 100/4/3 99/4/3 98/4/3
f 101/4/3 99/4/3 100/4/3
f 102/4/3 100/4/3 96/4/3
f 102/3/3 101/3/3 100/3/3
f 103/4/3 99/4/3 101/4/3
f 103/3/3 101/3/3 102/3/3
f 104/4/3 102/4/3 96/4/3
f 104/4/3 103/4/3 102/4/3
f 105/4/3 103/4/3 104/4/3
f 106/4/3 99/4/3 103/4/3
f 106/4/3 103/4/3 105/4/3
f 107/1/3 95/1/3 99/1/3
f 107/4/3 99/4/3 106/4/3
f 108/8/3 105/8/3 104/8/3
f 109/2/3 106/2/3 105/2/3
f 109/8/3 105/8/3 108/8/3
f 110/1/3 107/1/3 106/1/3
f 110/2/3 106/2/3 109/2/3
f 111/1/3 95/1/3 107/1/3
f 111/1/3 107/1/3 110/1/3
f 114/6/3 113/6/3 112/6/3
f 115/6/3 113/6/3 114/6/3
f 116/5/3 115/5/3 114/5/3
f 117/6/3 113/6/3 115/6/3
f 117/5/3 115/5/3 116/5/3
f 118/6/3 117/6/3 116/6/3
f 119/6/3 113/6/3 117/6/3
f 119/6/3 117/6/3 118/6/3
f 120/5/3 119/5/3 118/5/3
f 121/6/3 113/6/3 119/6/3
f 121/5/3 119/5/3 120/5/3
f 122/6/3 121/6/3 120/6/3
f 123/6/3 113/6/3 121/6/3
f 123/6/3 121/6/3 122/6/3
f 126/5/3 125/5/3 124/5/3
f 127/5/3 125/5/3 126/5/3
f 128/8/3 127/8/3 126/8/3
f 129/8/3 127/8/3 128/8/3
f 130/4/3 129/4/3 128/4/3
f 131/4/3 129/4/3 130/4/3
f 132/8/3 131/8/3 130/8/3
f 133/8/3 132/8/3 130/8/3
f 134/8/3 132/8/3 133/8/3
f 135/4/4 136/4/4 137/4/4
f 137/4/4 136/4/4 138/4/4
f 137/8/4 138/8/4 139/8/4
f 139/8/4 138/8/4 140/8/4
f 139/4/4 140/4/4 141/4/4
f 141/4/4 140/4/4 142/4/4
f 141/8/4 142/8/4 143/8/4
f 141/8/4 143/8/4 144/8/4
f 144/8/4 143/8/4 145/8/4
f 146/6/4 147/6/4 148/6/4
f 148/6/4 147/6/4 149/6/4
f 148/5/4 149/5/4 150/5/4
f 149/6/4 147/6/4 151/6/4
f 150/5/4 149/5/4 151/5/4
f 150/6/4 151/6/4 152/6/4
f 151/6/4 147/6/4 153/6/4
f 152/6/4 151/6/4 153/6/4
f 152/5/4 153/5/4 154/5/4
f 153/6/4 147/6/4 155/6/4
f 154/5/4 153/5/4 155/5/4
f 154/7/4 155/7/4 156/7/4
f 155/6/4 147/6/4 157/6/4
f 156/7/4 155/7/4 157/7/4
f 157/6/4 147/6/4 158/6/4
f 159/8/4 160/8/4 163/8/4
f 160/2/4 161/2/4 164/2/4
f 163/8/4 160/8/4 164/8/4
f 161/1/4 162/1/4 165/1/4
f 164/2/4 161/2/4 165/2/4
f 165/1/4 162/1/4 166/1/4
f 163/5/4 164/5/4 167/5/4
f 164/5/4 165/5/4 167/5/4
f 165/5/4 166/5/4 167/5/4
f 167/5/4 166/5/4 168/5/4
f 163/5/4 167/5/4 169/5/4
f 167/6/4 168/6/4 169/6/4
f 168/5/4 166/5/4 170/5/4
f 169/6/4 168/6/4 170/6/4
f 163/5/4 169/5/4 171/5/4
f 169/5/4 170/5/4 171/5/4
f 171/5/4 170/5/4 172/5/4
f 170/5/4 166/5/4 173/5/4
f 172/5/4 170/5/4 173/5/4
f 166/1/4 162/1/4 174/1/4
f 173/5/4 166/5/4 174/5/4
f 173/1/4 174/1/4 175/1/4
f 174/1/4 162/1/4 175/1/4
f 175/1/4 162/1/4 176/1/4
f 173/1/4 175/1/4 177/1/4
f 171/8/4 172/8/4 179/8/4
f 172/2/4 173/2/4 180/2/4
f 179/8/4 172/8/4 180/8/4
f 177/1/4 178/1/4 181/1/4
f 180/2/4 173/2/4 181/2/4
f 173/1/4 177/1/4 181/1/4
f 181/1/4 178/1/4 182/1/4
f 179/4/4 180/4/4 183/4/4
f 180/4/4 181/4/4 183/4/4
f 181/4/4 182/4/4 183/4/4
f 183/4/4 182/4/4 184/4/4
f 179/4/4 183/4/4 185/4/4
f 183/6/4 184/6/4 185/6/4
f 184/4/4 182/4/4 186/4/4
f 185/6/4 184/6/4 186/6/4
f 179/4/4 185/4/4 187/4/4
f 185/4/4 186/4/4 187/4/4
f 187/4/4 186/4/4 188/4/4
f 186/4/4 182/4/4 189/4/4
f 188/4/4 186/4/4 189/4/4
f 182/1/4 178/1/4 190/1/4
f 189/4/4 182/4/4 190/4/4
f 187/8/4 188/8/4 191/8/4
f 188/2/4 189/2/4 192/2/4
f 191/8/4 188/8/4 192/8/4
f 189/1/4 190/1/4 193/1/4
f 192/2/4 189/2/4 193/2/4
f 190/1/4 178/1/4 194/1/4
f 193/1/4 190/1/4 194/1/4
f 195/2/4 196/2/4 197/2/4
f 197/2/4 196/2/4 198/2/4
f 205/8/5 200/8/5 199/8/5
f 205/4/5 201/4/5 200/4/5
f 206/8/5 202/8/5 201/8/5
f 206/4/5 201/4/5 205/4/5
f 207/4/5 203/4/5 202/4/5
f 207/8/5 202/8/5 206/8/5
f 208/8/5 204/8/5 203/8/5
f 208/4/5 203/4/5 207/4/5
f 209/8/5 204/8/5 208/8/5
f 210/8/5 205/8/5 199/8/5
f 215/8/5 210/8/5 199/8/5
f 216/5/5 211/5/5 210/5/5
f 216/8/5 210/8/5 215/8/5
f 217/8/5 212/8/5 211/8/5
f 217/5/5 211/5/5 216/5/5
f 218/4/5 213/4/5 212/4/5
f 218/8/5 212/8/5 217/8/5
f 219/8/5 214/8/5 213/8/5
f 219/4/5 213/4/5 218/4/5
f 220/8/5 214/8/5 219/8/5
f 227/6/5 222/6/5 221/6/5
f 227/6/5 223/6/5 222/6/5
f 227/6/5 225/6/5 224/6/5
f 227/6/5 224/6/5 223/6/5
f 228/6/5 225/6/5 227/6/5
f 229/6/5 225/6/5 228/6/5
f 230/6/5 225/6/5 229/6/5
f 231/1/5 226/1/5 225/1/5
f 231/6/5 225/6/5 230/6/5
f 232/1/5 226/1/5 231/1/5
f 235/2/5 234/2/5 233/2/5
f 236/2/5 234/2/5 235/2/5
f 239/2/5 238/2/5 237/2/5
f 240/2/5 238/2/5 239/2/5
f 241/2/6 242/2/6 244/2/6
f 244/2/6 242/2/6 245/2/6
f 243/1/6 244/1/6 247/1/6
f 245/1/6 246/1/6 247/1/6
f 244/1/6 245/1/6 247/1/6
f 247/1/6 246/1/6 248/1/6
f 248/1/6 246/1/6 249/1/6
f 249/1/6 246/1/6 250/1/6
f 250/1/6 246/1/6 251/1/6
f 251/1/6 246/1/6 252/1/6
f 243/1/6 247/1/6 253/1/6
f 253/1/6 247/1/6 254/1/6
f 252/1/6 246/1/6 255/1/6
f 255/1/6 246/1/6 256/1/6
f 253/2/6 254/2/6 257/2/6
f 257/2/6 254/2/6 258/2/6
f 255/2/6 256/2/6 259/2/6
f 259/2/6 256/2/6 260/2/6
f 257/1/6 258/1/6 261/1/6
f 259/1/6 260/1/6 266/1/6
f 264/1/6 265/1/6 267/1/6
f 265/1/6 266/1/6 267/1/6
f 257/1/6 261/1/6 267/1/6
f 261/1/6 262/1/6 267/1/6
f 263/1/6 264/1/6 267/1/6
f 262/1/6 263/1/6 267/1/6
f 267/1/6 266/1/6 268/1/6
f 268/1/6 266/1/6 269/1/6
f 266/1/6 260/1/6 270/1/6
f 269/1/6 266/1/6 270/1/6
f 268/2/6 269/2/6 271/2/6
f 271/2/6 269/2/6 272/2/6
f 273/6/6 274/6/6 275/6/6
f 275/6/6 274/6/6 276/6/6
